<?xml version="1.0" encoding="utf-8"?>
<!-- Generator: Adobe Illustrator 27.7.0, SVG Export Plug-In . SVG Version: 6.00 Build 0)  -->
<svg version="1.1" xmlns="http://www.w3.org/2000/svg" xmlns:xlink="http://www.w3.org/1999/xlink" x="0px" y="0px"
	 viewBox="0 0 500 500" style="enable-background:new 0 0 500 500;" xml:space="preserve">
<style type="text/css">
	.st0{fill:#39346F;}
	.st1{fill:#565284;}
	.st2{fill:#FEFEFE;}
	.st3{fill:#5FA1D8;}
	.st4{fill:#6A96C8;}
	.st5{fill:#252525;}
	.st6{fill:#FFFFFF;}
	.st7{fill:#B17DDF;}
	.st8{fill:#265CFC;}
	.st9{fill:#01DEB5;}
	.st10{fill:#9B02FE;}
	.st11{fill:#5E5EB0;}
	.st12{fill:#DA4B7B;}
	.st13{fill:#11A37F;}
	.st14{fill:#F47D53;}
	.st15{fill:#01BCDF;}
	.st16{fill:#0E8CDC;}
	.st17{fill:#06A2FB;}
	.st18{fill:#4FC2DD;}
	.st19{fill:#2EDADE;}
	.st20{fill:#00D8F9;}
	.st21{fill:none;stroke:#F47D53;stroke-width:4;stroke-miterlimit:10;}
</style>
<g id="Layer_1">
</g>
<g id="Layer_2">
	<g>
		<g>
			<g>
				<path class="st5" d="M377.49,120.21h-40.04h-0.57h-38.72c-5.1,0-9.23,4.13-9.23,9.23v25.11c0,5.1,4.13,9.23,9.23,9.23h29.49
					c5.1,0,9.23,4.13,9.23,9.23v206.77h49.85V129.45C386.72,124.35,382.59,120.21,377.49,120.21z"/>
				<g>
					<path class="st5" d="M161.65,112.15h-12.13c-47.78,0-87.69,33.62-97.4,78.49c-1.69,7.79,6.76,13.85,13.66,9.86l62.9-36.31
						l0.11,0.2c7.12-3.82,15.03-5.96,23.36-5.96h6.85c31.12,0,56.35,29.65,56.35,66.23v50.7c0,36.58-25.23,66.23-56.35,66.23h-6.85
						c-31.12,0-56.35-29.65-56.35-66.23v-14.06c0-7.11-7.69-11.55-13.85-7.99l-27.52,15.89c-2.86,1.65-4.62,4.7-4.62,7.99v10.98
						c0,55.06,44.63,99.69,99.69,99.69h12.13c55.06,0,99.69-44.63,99.69-99.69v-76.32C261.34,156.78,216.71,112.15,161.65,112.15z"
						/>
				</g>
			</g>
		</g>
		<g>
			<g>
				<polygon class="st5" points="413.85,364.51 420.29,364.51 420.29,379.79 423.68,379.79 423.68,364.51 430.04,364.51 
					430.04,361.47 413.85,361.47 				"/>
				<polygon class="st5" points="440.15,374.9 434.73,361.47 431.45,361.47 430.13,379.79 433.44,379.79 434.27,368.23 
					439.02,379.79 441.28,379.79 446.03,368.23 446.85,379.79 450.17,379.79 448.85,361.47 445.56,361.47 				"/>
			</g>
		</g>
	</g>
</g>
</svg>